<svg xmlns="http://www.w3.org/2000/svg" xmlns:xlink="http://www.w3.org/1999/xlink" version="1.1" id="Capa_1" x="0px" y="0px" viewBox="0 0 269.336 269.336" style="enable-background:new 0 0 269.336 269.336;" xml:space="preserve" width="512px" height="512px">
<g>
	<path d="M101.554,142.756c-6.563,0-10.388,6.245-10.388,14.595c0,8.414,3.952,14.341,10.451,14.341   c6.566,0,10.325-6.246,10.325-14.596C111.942,149.385,108.246,142.756,101.554,142.756z" fill="#3a393f"/>
	<path d="M251.521,163.13c-1.623-4.27-5.716-7.092-10.284-7.092h-21.072V21.29c0-11.758-9.532-21.29-21.29-21.29H70.463   c-11.758,0-21.29,9.532-21.29,21.29v134.748H28.1c-4.568,0-8.661,2.822-10.284,7.092c-1.624,4.27-0.441,9.098,2.972,12.134   l99.733,88.691c8.067,7.175,20.228,7.175,28.295,0l99.733-88.691C251.962,172.227,253.145,167.399,251.521,163.13z M156.243,77.304   c4.641,0,8.402,3.762,8.402,8.402s-3.762,8.402-8.402,8.402c-4.641,0-8.402-3.762-8.402-8.402S151.603,77.304,156.243,77.304z    M129.294,75.411c11.071,0,15.396,9.864,15.396,21.189c0,12.789-5.152,21.569-15.716,21.569c-10.689,0-15.397-9.607-15.462-21.314   C113.513,84.893,118.603,75.411,129.294,75.411z M84.202,74.672h24.462c1.145,0,2.072,0.928,2.072,2.072v2.34   c0,1.324-0.3,2.632-0.877,3.825l-15.757,32.572c-0.795,1.644-2.46,2.688-4.286,2.688c-1.658,0-3.197-0.863-4.062-2.277   c-0.865-1.415-0.932-3.178-0.175-4.653l14.382-28.067v-0.135h-15.76c-2.31,0-4.182-1.872-4.182-4.183   C80.021,76.544,81.893,74.672,84.202,74.672z M101.108,179.402c-12.747,0-20.203-9.624-20.203-21.859   c0-12.875,8.221-22.498,20.903-22.498c13.194,0,20.396,9.877,20.396,21.733C122.204,170.863,113.664,179.402,101.108,179.402z    M149.806,153.527c2.183,0,3.951,1.769,3.951,3.951c0,2.182-1.77,3.951-3.951,3.951h-11.473v12.398   c0,2.692-2.183,4.875-4.875,4.875c-2.692,0-4.875-2.183-4.875-4.875v-35.778c0-1.272,1.032-2.305,2.305-2.305h19.97   c2.2,0,3.983,1.783,3.983,3.984c0,2.2-1.783,3.983-3.983,3.983h-12.524v9.815H149.806z M159.441,118.595   c-0.533,0-1.075-0.123-1.583-0.381c-1.724-0.876-2.41-2.983-1.534-4.706l19.206-37.775c0.876-1.723,2.983-2.409,4.706-1.534   c1.724,0.876,2.41,2.983,1.534,4.706l-19.206,37.775C161.946,117.895,160.717,118.595,159.441,118.595z M183.398,153.527   c2.183,0,3.951,1.769,3.951,3.951c0,2.182-1.77,3.951-3.951,3.951h-11.472v12.398c0,2.692-2.183,4.875-4.876,4.875   c-2.692,0-4.875-2.183-4.875-4.875v-35.778c0-1.272,1.032-2.305,2.305-2.305h19.97c2.2,0,3.983,1.783,3.983,3.984   c0,2.2-1.783,3.983-3.983,3.983h-12.523v9.815H183.398z M181.852,115.109c-4.641,0-8.402-3.762-8.402-8.403   c0-4.641,3.762-8.402,8.402-8.402c4.641,0,8.402,3.762,8.402,8.402C190.254,111.348,186.492,115.109,181.852,115.109z" fill="#3a393f"/>
	<path d="M129.23,110.854c3.754,0,5.791-4.709,5.791-14.126c0-9.163-1.973-13.999-5.855-13.999c-3.563,0-5.979,4.519-5.917,14.127   C123.187,106.334,125.476,110.854,129.23,110.854z" fill="#3a393f"/>
</g>
</svg>
